# Blender v2.72 (sub 0) OBJ File: 'snowman.blend'
# www.blender.org
mtllib snowman.mtl
o hand.001_Icosphere.004
v -1.324051 1.637894 0.161910
v -1.664095 1.835725 0.207360
v -1.282266 1.649405 0.191794
v -1.256380 1.689978 0.141326
v -1.409956 1.873285 0.030969
v -1.676820 1.870609 0.021473
v -1.534769 1.949290 0.384242
v -1.252011 2.021031 0.319554
v -1.252011 2.021031 0.004122
v -1.525037 2.254925 -0.085849
v -1.752986 2.176766 -0.011891
v -1.389116 2.379080 0.214954
v -1.233057 2.021031 0.147971
v -1.157769 1.921598 0.089577
v -0.988164 2.236073 0.162753
v -0.449176 0.988777 -0.000695
v -0.440885 0.985009 0.026813
v -0.409071 1.017036 -0.018016
vn 0.299900 0.671200 -0.677900
vn 0.511300 0.850300 0.124600
vn -0.085500 0.460300 0.883600
vn -0.036000 0.475700 0.878900
vn 0.970700 0.239200 -0.021600
vn 0.306400 0.683300 -0.662700
vn -0.927000 0.187200 -0.325000
vn -0.199300 0.377400 0.904300
vn -0.036900 0.282300 0.958600
vn 0.837300 -0.124100 -0.532500
vn -0.289600 0.332200 -0.897600
vn -0.087100 0.267500 0.959600
vn 0.252100 0.166600 0.953200
vn 0.639600 -0.459500 -0.616200
vn -0.132000 -0.324200 -0.936700
vn -0.916700 -0.399600 0.000000
vn -0.647600 -0.555300 0.521800
vn 0.375900 -0.904100 0.203300
vn -0.392600 0.356600 0.847800
vn -0.849400 0.258800 -0.460000
vn -0.586800 0.130600 0.799100
vn -0.705500 0.497900 -0.504400
vn -0.479000 0.838700 0.259200
vn 0.659800 -0.751400 0.000000
vn -0.524300 -0.493800 -0.693700
vn 0.259700 0.104500 0.960000
vn 0.463000 0.730200 -0.502400
g hand.001_Icosphere.004_Material.006
usemtl Material.006
s off
f 1//1 2//1 3//1
f 2//2 1//2 6//2
f 1//3 4//3 5//3
f 1//4 5//4 6//4
f 2//5 6//5 11//5
f 3//6 2//6 7//6
f 4//7 3//7 8//7
f 5//8 4//8 9//8
f 6//9 5//9 10//9
f 2//10 11//10 7//10
f 3//11 7//11 8//11
f 5//12 9//12 10//12
f 6//13 10//13 11//13
f 7//14 11//14 12//14
f 8//15 7//15 12//15
f 9//16 13//16 8//16 12//16
f 10//17 9//17 12//17
f 11//18 10//18 12//18
f 9//19 4//19 14//19
f 4//20 8//20 14//20
f 9//21 14//21 15//21
f 14//22 8//22 15//22
f 16//23 17//23 18//23
f 8//24 13//24 9//24 15//24
g hand.001_Icosphere.004_Material.007
usemtl Material.007
f 3//25 4//25 18//25 17//25
f 4//26 1//26 16//26 18//26
f 1//27 3//27 17//27 16//27
o Sphere
v 0.242421 2.509770 0.548088
v 0.253795 2.553411 0.545023
v 0.181955 2.538954 0.572593
v 0.224750 2.551705 0.579618
v 0.179579 2.571550 0.527907
v 0.222373 2.584301 0.534933
v 0.197250 2.529615 0.496377
v 0.240045 2.542366 0.503403
v 0.168205 2.527909 0.530972
v 0.199627 2.497019 0.541063
v -0.196677 2.509769 0.548088
v -0.185304 2.553411 0.545023
v -0.257143 2.538953 0.572593
v -0.214349 2.551704 0.579618
v -0.259520 2.571550 0.527907
v -0.216725 2.584301 0.534933
v -0.241849 2.529615 0.496377
v -0.199054 2.542366 0.503403
v -0.270893 2.527909 0.530972
v -0.239472 2.497018 0.541063
vn 0.319200 -0.757500 -0.569500
vn 0.042900 -0.588800 0.807100
vn -0.760500 0.153900 -0.630900
vn -0.042900 0.588800 -0.807100
vn 0.706200 0.590900 -0.390100
vn -0.531500 -0.697600 -0.480600
vn 0.935200 -0.260600 -0.239800
vn -0.706200 -0.590900 0.390100
vn 0.760500 -0.153900 0.630900
vn -0.935200 0.260600 0.239800
vn -0.319200 0.757500 0.569500
vn 0.531400 0.697600 0.480600
vn -0.531400 -0.697600 -0.480600
g Sphere_Sphere_Material.005
usemtl Material.005
s off
f 22//28 21//28 23//28 24//28
f 24//29 23//29 25//29 26//29
f 20//30 19//30 22//30
f 19//31 28//31 21//31 22//31
f 28//32 27//32 21//32
f 20//33 22//33 24//33
f 21//34 27//34 23//34
f 20//35 24//35 26//35
f 23//36 27//36 25//36
f 20//37 26//37 19//37
f 26//38 25//38 28//38 19//38
f 25//39 27//39 28//39
f 32//28 31//28 33//28 34//28
f 34//29 33//29 35//29 36//29
f 30//30 29//30 32//30
f 29//31 38//31 31//31 32//31
f 38//32 37//32 31//32
f 30//40 32//40 34//40
f 31//34 37//34 33//34
f 30//35 34//35 36//35
f 33//36 37//36 35//36
f 30//37 36//37 29//37
f 36//38 35//38 38//38 29//38
f 35//39 37//39 38//39
o scarf_Cylinder.003
v 0.000000 1.664213 -0.566652
v -0.015628 1.899693 -0.502067
v 0.313011 1.653251 -0.436132
v 0.364237 1.914399 -0.434081
v 0.498921 1.617275 -0.100509
v 0.558044 1.914399 -0.098398
v 0.491549 1.652637 0.306057
v 0.541220 1.929040 0.299237
v 0.231193 1.660595 0.535434
v 0.231193 1.910781 0.535434
v -0.041436 1.669014 0.504393
v -0.252172 1.667465 0.427195
v -0.439509 1.676426 0.424231
v -0.495788 1.943488 0.401480
v -0.523853 1.627923 -0.122944
v -0.609428 1.921967 -0.129669
v -0.364237 1.664213 -0.406448
v -0.346956 1.901849 -0.377765
v 0.182163 1.676914 0.546745
v 0.241184 1.905496 0.558679
v 0.215355 1.910550 0.605084
v 0.167896 1.670738 0.562686
v -0.113066 1.611872 0.655229
v -0.274221 1.664632 0.648607
v -0.078615 1.497662 0.879084
v -0.279440 1.634403 0.843426
v -0.099628 1.467393 1.047017
v -0.337709 1.657549 1.011130
v -0.060412 1.472391 1.263528
v -0.416345 1.601698 1.254554
v -0.049979 1.529803 1.450597
v -0.426778 1.544286 1.486673
vn 0.273200 0.108700 -0.955800
vn 0.854600 -0.165300 -0.492300
vn 0.981700 -0.185900 0.041100
vn 0.632100 -0.049600 0.773300
vn -0.215400 0.118400 0.969300
vn -0.252000 -0.041900 0.966800
vn -0.954100 -0.231200 0.190200
vn -0.779900 -0.074500 -0.621500
vn -0.371900 0.180800 -0.910500
vn 0.817200 -0.246200 0.521100
vn 0.093900 0.978900 0.181400
vn 0.421800 0.865800 0.269200
vn 0.574200 0.804400 0.152700
vn 0.461200 0.876700 0.136500
vn 0.192600 0.981300 0.000000
g scarf_Cylinder.003_Material.002
usemtl Material.002
s off
f 39//41 40//41 42//41 41//41
f 41//42 42//42 44//42 43//42
f 43//43 44//43 46//43 45//43
f 45//44 46//44 48//44 47//44
f 47//45 48//45 50//45 49//45
f 60//46 59//46 52//46 51//46
f 51//47 52//47 54//47 53//47
f 53//48 54//48 56//48 55//48
f 55//49 56//49 40//49 39//49
f 57//50 58//50 59//50 60//50
f 49//51 50//51 62//51 61//51
f 61//52 62//52 64//52 63//52
f 63//53 64//53 66//53 65//53
f 65//54 66//54 68//54 67//54
f 67//55 68//55 70//55 69//55
o hand_Icosphere.002
v 1.430479 1.637894 0.161910
v 1.770523 1.835725 0.207360
v 1.388695 1.649405 0.191794
v 1.362809 1.689978 0.141326
v 1.516385 1.873285 0.030969
v 1.783248 1.870609 0.021473
v 1.641198 1.949290 0.384242
v 1.358439 2.021031 0.319554
v 1.358439 2.021031 0.004122
v 1.631465 2.254925 -0.085849
v 1.859414 2.176766 -0.011891
v 1.495545 2.379080 0.214954
v 1.339485 2.021031 0.147971
v 1.264198 1.921598 0.089577
v 1.094592 2.236073 0.162753
v 0.555604 0.988777 -0.000695
v 0.547314 0.985009 0.026813
v 0.515500 1.017036 -0.018016
vn 0.299900 -0.671200 0.677900
vn 0.511300 -0.850300 -0.124600
vn -0.085500 -0.460300 -0.883600
vn -0.036000 -0.475700 -0.878900
vn 0.970700 -0.239200 0.021600
vn 0.306400 -0.683300 0.662700
vn -0.927000 -0.187200 0.325000
vn -0.199300 -0.377400 -0.904300
vn -0.036900 -0.282300 -0.958600
vn 0.837300 0.124100 0.532500
vn -0.289600 -0.332200 0.897600
vn -0.087100 -0.267500 -0.959600
vn 0.252100 -0.166600 -0.953200
vn 0.639600 0.459500 0.616200
vn -0.132000 0.324200 0.936700
vn -0.916700 0.399600 0.000000
vn -0.647600 0.555300 -0.521800
vn 0.375900 0.904100 -0.203300
vn -0.392600 -0.356600 -0.847800
vn -0.849400 -0.258800 0.460000
vn -0.586800 -0.130600 -0.799100
vn -0.705500 -0.497900 0.504400
vn -0.479000 -0.838700 -0.259200
vn 0.659800 0.751400 0.000000
vn -0.524300 0.493800 0.693700
vn 0.259700 -0.104500 -0.960000
vn 0.463000 -0.730200 0.502400
g hand_Icosphere.002_Material.006
usemtl Material.006
s off
f 71//56 72//56 73//56
f 72//57 71//57 76//57
f 71//58 74//58 75//58
f 71//59 75//59 76//59
f 72//60 76//60 81//60
f 73//61 72//61 77//61
f 74//62 73//62 78//62
f 75//63 74//63 79//63
f 76//64 75//64 80//64
f 72//65 81//65 77//65
f 73//66 77//66 78//66
f 75//67 79//67 80//67
f 76//68 80//68 81//68
f 77//69 81//69 82//69
f 78//70 77//70 82//70
f 79//71 83//71 78//71 82//71
f 80//72 79//72 82//72
f 81//73 80//73 82//73
f 79//74 74//74 84//74
f 74//75 78//75 84//75
f 79//76 84//76 85//76
f 84//77 78//77 85//77
f 86//78 87//78 88//78
f 78//79 83//79 79//79 85//79
g hand_Icosphere.002_Material.007
usemtl Material.007
f 73//80 74//80 88//80 87//80
f 74//81 71//81 86//81 88//81
f 71//82 73//82 87//82 86//82
o nose_Cone
v 0.000000 2.431459 0.598240
v 0.098085 2.263559 0.598240
v 0.000000 2.319526 1.263437
v -0.098085 2.263559 0.598240
vn -0.000000 -0.996500 0.083800
vn 0.860400 0.502600 0.084600
vn -0.860400 0.502600 0.084600
vn -0.000000 0.000000 -1.000000
g nose_Cone_Material.004
usemtl Material.004
s off
f 90//83 91//83 92//83
f 89//84 91//84 90//84
f 92//85 91//85 89//85
f 89//86 90//86 92//86
o hat_Cylinder.001
v -0.000000 2.565644 -0.513847
v 0.000000 2.434822 -0.742457
v 0.180012 2.582978 -0.468836
v 0.310188 2.464692 -0.664895
v 0.311790 2.630338 -0.345862
v 0.537261 2.546301 -0.452994
v 0.360024 2.695033 -0.177878
v 0.620376 2.657779 -0.163530
v 0.311790 2.759728 -0.009893
v 0.537261 2.769258 0.125933
v 0.180012 2.807088 0.113081
v 0.310188 2.850867 0.337835
v 0.000000 2.824423 0.158092
v 0.000000 2.880738 0.415396
v -0.180012 2.807088 0.113081
v -0.310188 2.850867 0.337835
v -0.311790 2.759728 -0.009893
v -0.537261 2.769258 0.125933
v -0.360024 2.695033 -0.177877
v -0.620376 2.657780 -0.163530
v -0.311790 2.630338 -0.345862
v -0.537261 2.546301 -0.452993
v -0.180012 2.582978 -0.468836
v -0.310188 2.464692 -0.664895
v 0.000000 2.461431 -0.752705
v 0.310188 2.491302 -0.675143
v 0.537261 2.572910 -0.463242
v 0.620376 2.684389 -0.173778
v 0.537261 2.795868 0.115685
v 0.310188 2.877477 0.327587
v 0.000000 2.907347 0.405148
v -0.310188 2.877477 0.327587
v -0.537261 2.795868 0.115685
v -0.620376 2.684389 -0.173778
v -0.537261 2.572911 -0.463241
v -0.310188 2.491302 -0.675143
v 0.000000 3.125229 -1.014884
v 0.313238 3.155393 -0.936560
v 0.542543 3.237804 -0.722575
v 0.626475 3.350379 -0.430266
v 0.542543 3.462954 -0.137957
v 0.313238 3.545364 0.076028
v 0.000000 3.575529 0.154352
v -0.313237 3.545364 0.076028
v -0.542543 3.462954 -0.137957
v -0.626475 3.350379 -0.430266
v -0.542543 3.237804 -0.722575
v -0.313238 3.155393 -0.936560
vn -0.258800 0.347100 0.901400
vn -0.707100 0.254100 0.659900
vn -0.965900 0.093000 0.241500
vn -0.965900 -0.093000 -0.241500
vn -0.707100 -0.254100 -0.659900
vn -0.258800 -0.347100 -0.901400
vn 0.258800 -0.347100 -0.901400
vn 0.707100 -0.254100 -0.659900
vn 0.965900 -0.093000 -0.241500
vn 0.965900 0.093000 0.241500
vn -0.000000 0.933200 -0.359400
vn 0.258800 0.347100 0.901400
vn 0.707100 0.254100 0.659900
vn 0.243000 0.647100 0.722700
vn -0.011700 -0.916500 0.399900
vn -0.032000 -0.920700 0.388900
vn -0.043800 -0.928000 0.370000
vn -0.043800 -0.936400 0.348100
vn -0.032000 -0.943700 0.329100
vn -0.011700 -0.948000 0.318200
vn 0.011700 -0.948000 0.318200
vn 0.032000 -0.943700 0.329100
vn 0.043800 -0.936400 0.348100
vn 0.043800 -0.928000 0.370000
vn 0.011700 -0.916500 0.399900
vn 0.032000 -0.920700 0.388900
vn -0.000000 -0.933200 0.359400
vn 0.663900 0.559700 0.495900
vn 0.906900 0.408500 0.103100
vn 0.906900 0.233800 -0.350400
vn 0.663900 0.082500 -0.743200
vn 0.243000 -0.004800 -0.970000
vn -0.243000 -0.004800 -0.970000
vn -0.663900 0.082500 -0.743200
vn -0.906900 0.233800 -0.350400
vn -0.906900 0.408500 0.103100
vn -0.663900 0.559700 0.495900
vn -0.243000 0.647100 0.722700
g hat_Cylinder.001_Material.003
usemtl Material.003
s off
f 117//87 94//87 96//87 118//87
f 118//88 96//88 98//88 119//88
f 119//89 98//89 100//89 120//89
f 120//90 100//90 102//90 121//90
f 121//91 102//91 104//91 122//91
f 122//92 104//92 106//92 123//92
f 123//93 106//93 108//93 124//93
f 124//94 108//94 110//94 125//94
f 125//95 110//95 112//95 126//95
f 126//96 112//96 114//96 127//96
f 96//97 94//97 116//97 114//97 112//97 110//97 108//97 106//97 104//97 102//97 100//97 98//97
f 128//98 116//98 94//98 117//98
f 127//99 114//99 116//99 128//99
f 115//100 93//100 129//100 140//100
f 93//101 117//101 118//101 95//101
f 95//102 118//102 119//102 97//102
f 97//103 119//103 120//103 99//103
f 99//104 120//104 121//104 101//104
f 101//105 121//105 122//105 103//105
f 103//106 122//106 123//106 105//106
f 105//107 123//107 124//107 107//107
f 107//108 124//108 125//108 109//108
f 109//109 125//109 126//109 111//109
f 111//110 126//110 127//110 113//110
f 115//111 128//111 117//111 93//111
f 113//112 127//112 128//112 115//112
f 129//113 130//113 131//113 132//113 133//113 134//113 135//113 136//113 137//113 138//113 139//113 140//113
f 113//114 115//114 140//114 139//114
f 111//115 113//115 139//115 138//115
f 109//116 111//116 138//116 137//116
f 107//117 109//117 137//117 136//117
f 105//118 107//118 136//118 135//118
f 103//119 105//119 135//119 134//119
f 101//120 103//120 134//120 133//120
f 99//121 101//121 133//121 132//121
f 97//122 99//122 132//122 131//122
f 95//123 97//123 131//123 130//123
f 93//124 95//124 130//124 129//124
o head_Icosphere.001
v -0.010267 1.686093 0.039975
v 0.437683 1.943130 0.380000
v -0.207488 1.991216 0.559611
v -0.596653 1.967836 0.033397
v -0.217964 1.922231 -0.465768
v 0.426083 1.922232 -0.256501
v 0.171034 2.501085 0.575465
v -0.489764 2.514118 0.358901
v -0.505996 2.451899 -0.256501
v 0.170889 2.527812 -0.511420
v 0.566348 2.534447 0.014188
v -0.016665 2.830943 0.074883
v -0.121252 1.745440 0.335856
v 0.251110 1.753641 0.201921
v 0.140365 1.928424 0.536298
v 0.519345 1.933542 0.045173
v 0.263628 1.761539 -0.150030
v -0.361548 1.741119 0.003394
v -0.473563 1.938656 0.324813
v -0.104874 1.712784 -0.258272
v -0.446768 1.930798 -0.299839
v 0.165652 1.912882 -0.515990
v 0.592693 2.268022 0.248320
v 0.601440 2.268380 -0.196835
v -0.025611 2.216838 0.690372
v 0.347454 2.236194 0.568414
v -0.630589 2.243312 0.261154
v -0.418520 2.187065 0.603139
v -0.393627 2.224382 -0.504273
v -0.625176 2.243978 -0.168233
v 0.378306 2.252908 -0.519321
v -0.005041 2.257877 -0.590776
v 0.403272 2.498395 0.404115
v -0.188505 2.554527 0.549802
v -0.567520 2.594107 0.037558
v -0.176946 2.555046 -0.476244
v 0.418788 2.532025 -0.299910
v 0.093276 2.732277 0.336923
v 0.319669 2.766195 0.051140
v -0.279675 2.754985 0.253119
v -0.293883 2.787629 -0.181831
v 0.096345 2.758032 -0.310641
v -0.007558 0.022066 0.000000
v 0.657150 0.448551 0.525725
v -0.307315 0.458468 0.850649
v -0.895918 0.504047 0.000000
v -0.281631 0.478897 -0.850649
v 0.681060 0.522573 -0.525725
v 0.263616 1.308901 0.850649
v -0.740657 1.332406 0.525725
v -0.725568 1.324060 -0.525725
v 0.264889 1.368658 -0.850649
v 0.888837 1.320383 0.000000
v -0.002074 1.811210 0.000000
v -0.170776 0.130464 0.499995
v 0.392662 0.103768 0.309011
v 0.257206 0.395027 0.809012
v 0.802998 0.373146 0.000000
v 0.416867 0.138134 -0.309011
v -0.525730 0.122838 0.000000
v -0.695179 0.467144 0.499997
v -0.163582 0.097928 -0.499995
v -0.688392 0.419205 -0.499997
v 0.257451 0.382103 -0.809012
v 0.915291 0.879341 0.309013
v 0.939712 0.912631 -0.309013
v -0.066457 0.905343 1.000000
v 0.584505 0.971541 0.809017
v -0.961926 0.903433 0.309013
v -0.600450 0.906724 0.809017
v -0.595088 0.892887 -0.809017
v -0.957960 0.905494 -0.309013
v 0.568913 0.942751 -0.809017
v -0.005559 0.916422 -1.000000
v 0.680550 1.437366 0.499997
v -0.329326 1.375063 0.809012
v -0.854940 1.419475 0.000000
v -0.299732 1.423050 -0.809012
v 0.679430 1.413711 -0.499997
v 0.131645 1.713439 0.499995
v 0.459273 1.671199 0.000000
v -0.451024 1.684002 0.309011
v -0.491780 1.657391 -0.309011
v 0.159342 1.707150 -0.499995
vn 0.105200 -0.966700 0.233400
vn 0.616100 -0.768600 0.172300
vn -0.166900 -0.976900 0.133300
vn -0.150500 -0.987800 -0.040700
vn 0.170500 -0.975200 -0.141400
vn 0.911100 -0.340700 0.232000
vn -0.028700 -0.483800 0.874700
vn -0.865900 -0.377800 0.327900
vn -0.545400 -0.410200 -0.730900
vn 0.650200 -0.412900 -0.637700
vn 0.792800 -0.137600 0.593700
vn -0.171900 -0.386600 0.906100
vn -0.993600 -0.111900 -0.012700
vn -0.192100 -0.233200 -0.953300
vn 0.789200 -0.308200 -0.531200
vn 0.419600 0.716300 0.557500
vn -0.462400 0.662300 0.589600
vn -0.723500 0.549900 -0.417300
vn -0.025500 0.652400 -0.757500
vn 0.628700 0.717100 -0.300900
vn -0.075200 -0.685600 0.724100
vn 0.200200 -0.839500 0.505100
vn 0.312300 -0.795500 0.519300
vn 0.635300 -0.753700 -0.168200
vn 0.557500 -0.830200 0.001200
vn 0.257500 -0.966200 -0.012500
vn -0.664900 -0.717100 0.209000
vn -0.459900 -0.819000 0.343100
vn -0.397400 -0.690100 0.604800
vn -0.410300 -0.744000 -0.527400
vn -0.466800 -0.802800 -0.371000
vn -0.690200 -0.684700 -0.234300
vn 0.467700 -0.765600 -0.441800
vn 0.240400 -0.872600 -0.425200
vn -0.106400 -0.728200 -0.677100
vn 0.993100 0.115400 0.019600
vn 0.974100 -0.225100 0.019000
vn 0.879300 -0.401200 -0.256800
vn 0.297900 0.173400 0.938700
vn 0.310300 -0.302800 0.901100
vn 0.444500 -0.383600 0.809500
vn -0.810600 0.226600 0.539900
vn -0.825600 -0.329900 0.457700
vn -0.445000 -0.622600 0.643700
vn -0.797600 0.218500 -0.562300
vn -0.807300 -0.231800 -0.542700
vn -0.869100 -0.347100 -0.352400
vn 0.182800 0.165800 -0.969100
vn 0.180300 -0.122300 -0.976000
vn -0.131400 -0.271700 -0.953400
vn 0.558400 0.351900 0.751300
vn 0.764200 0.217800 0.607100
vn 0.823600 0.418100 0.383100
vn -0.523100 0.433900 0.733600
vn -0.228200 0.278300 0.933000
vn -0.009500 0.380400 0.924800
vn -0.869000 0.349200 -0.350700
vn -0.985500 0.169400 -0.012200
vn -0.886000 0.351800 0.302000
vn -0.070100 0.323200 -0.943700
vn -0.230300 0.231100 -0.945300
vn -0.589700 0.443600 -0.674800
vn 0.821400 0.417000 -0.389100
vn 0.771900 0.319900 -0.549400
vn 0.574200 0.452900 -0.682000
vn 0.200400 0.941600 0.270500
vn 0.468700 0.753600 0.460800
vn 0.670300 0.659000 0.341200
vn -0.024400 0.932200 0.361200
vn -0.079600 0.814500 0.574700
vn 0.059100 0.726400 0.684700
vn -0.226000 0.970800 0.080200
vn -0.531600 0.843100 0.080600
vn -0.636000 0.698600 0.327800
vn 0.014600 0.983300 -0.181700
vn -0.158200 0.743300 -0.650000
vn -0.582700 0.509000 -0.633600
vn 0.178400 0.975100 -0.132100
vn 0.544800 0.760500 -0.353400
vn 0.481400 0.659400 -0.577400
vn 0.028600 -0.974900 0.220700
vn 0.666400 -0.689500 0.283800
vn -0.188800 -0.970700 0.148800
vn -0.190100 -0.977700 -0.089000
vn 0.129300 -0.973600 -0.188100
vn 0.877500 -0.376200 0.297400
vn 0.032200 -0.332400 0.942600
vn -0.864400 -0.389200 0.318300
vn -0.577100 -0.363400 -0.731300
vn 0.598000 -0.332200 -0.729400
vn 0.801000 -0.195300 0.565900
vn -0.334100 -0.131800 0.933300
vn -0.987400 -0.157900 -0.006900
vn -0.300700 -0.132700 -0.944500
vn 0.783000 -0.190200 -0.592200
vn 0.340400 0.676800 0.652700
vn -0.449500 0.706900 0.546200
vn -0.684700 0.668700 -0.289900
vn 0.018600 0.722100 -0.691500
vn 0.628000 0.769000 -0.119500
vn -0.032900 -0.736300 0.675900
vn 0.138600 -0.838900 0.526300
vn 0.473000 -0.699500 0.535600
vn 0.673000 -0.655600 -0.342400
vn 0.534800 -0.844600 -0.026000
vn 0.233000 -0.971400 -0.044900
vn -0.698100 -0.677900 0.230200
vn -0.502200 -0.782300 0.368500
vn -0.468000 -0.728900 0.499600
vn -0.417500 -0.682000 -0.600400
vn -0.495000 -0.808500 -0.318200
vn -0.706100 -0.685700 -0.176700
vn 0.555200 -0.663900 -0.501000
vn 0.217700 -0.848000 -0.483200
vn -0.067400 -0.686900 -0.723600
vn 0.994900 0.090600 0.044200
vn 0.972500 -0.231600 0.026000
vn 0.862400 -0.397900 -0.313100
vn 0.266200 0.135400 0.954300
vn 0.293100 -0.166400 0.941500
vn 0.575000 -0.326500 0.750200
vn -0.804800 0.121600 0.581000
vn -0.787600 -0.231600 0.570900
vn -0.632600 -0.349500 0.691100
vn -0.799500 0.141600 -0.583800
vn -0.792900 -0.215700 -0.570000
vn -0.879100 -0.368600 -0.302300
vn 0.307600 0.127400 -0.942900
vn 0.317800 -0.176600 -0.931600
vn 0.013500 -0.330600 -0.943700
vn 0.516000 0.397100 0.759000
vn 0.835800 0.173300 0.521000
vn 0.908700 0.274700 0.314300
vn -0.559200 0.323700 0.763200
vn -0.330100 0.191100 0.924400
vn -0.024700 0.364700 0.930800
vn -0.893200 0.349300 -0.283200
vn -0.979800 0.199800 -0.005600
vn -0.905900 0.339400 0.253100
vn -0.037300 0.333400 -0.942000
vn -0.309800 0.172600 -0.935000
vn -0.575200 0.320400 -0.752600
vn 0.887300 0.343700 -0.307500
vn 0.793700 0.192400 -0.577000
vn 0.584000 0.345100 -0.734800
vn 0.288700 0.951200 0.108800
vn 0.438900 0.872700 0.213900
vn 0.630400 0.771900 0.082000
vn -0.121500 0.967500 0.221700
vn -0.221300 0.804600 0.551000
vn 0.020700 0.658700 0.752100
vn -0.286700 0.957700 -0.022300
vn -0.547900 0.836500 0.000100
vn -0.660400 0.704400 0.260200
vn -0.145500 0.958200 -0.246400
vn -0.205700 0.853400 -0.479000
vn -0.504900 0.690700 -0.517700
vn 0.288800 0.951600 -0.104800
vn 0.478700 0.848400 -0.226100
vn 0.403900 0.715900 -0.569500
g head_Icosphere.001_Material.001
usemtl Material.001
s off
f 141//125 154//125 153//125
f 142//126 154//126 156//126
f 141//127 153//127 158//127
f 141//128 158//128 160//128
f 141//129 160//129 157//129
f 142//130 156//130 163//130
f 143//131 155//131 165//131
f 144//132 159//132 167//132
f 145//133 161//133 169//133
f 146//134 162//134 171//134
f 142//135 163//135 166//135
f 143//136 165//136 168//136
f 144//137 167//137 170//137
f 145//138 169//138 172//138
f 146//139 171//139 164//139
f 147//140 173//140 178//140
f 148//141 174//141 180//141
f 149//142 175//142 181//142
f 150//143 176//143 182//143
f 151//144 177//144 179//144
f 153//145 155//145 143//145
f 153//146 154//146 155//146
f 154//147 142//147 155//147
f 156//148 157//148 146//148
f 156//149 154//149 157//149
f 154//150 141//150 157//150
f 158//151 159//151 144//151
f 158//152 153//152 159//152
f 153//153 143//153 159//153
f 160//154 161//154 145//154
f 160//155 158//155 161//155
f 158//156 144//156 161//156
f 157//157 162//157 146//157
f 157//158 160//158 162//158
f 160//159 145//159 162//159
f 163//160 164//160 151//160
f 163//161 156//161 164//161
f 156//162 146//162 164//162
f 165//163 166//163 147//163
f 165//164 155//164 166//164
f 155//165 142//165 166//165
f 167//166 168//166 148//166
f 167//167 159//167 168//167
f 159//168 143//168 168//168
f 169//169 170//169 149//169
f 169//170 161//170 170//170
f 161//171 144//171 170//171
f 171//172 172//172 150//172
f 171//173 162//173 172//173
f 162//174 145//174 172//174
f 166//175 173//175 147//175
f 166//176 163//176 173//176
f 163//177 151//177 173//177
f 168//178 174//178 148//178
f 168//179 165//179 174//179
f 165//180 147//180 174//180
f 170//181 175//181 149//181
f 170//182 167//182 175//182
f 167//183 148//183 175//183
f 172//184 176//184 150//184
f 172//185 169//185 176//185
f 169//186 149//186 176//186
f 164//187 177//187 151//187
f 164//188 171//188 177//188
f 171//189 150//189 177//189
f 178//190 179//190 152//190
f 178//191 173//191 179//191
f 173//192 151//192 179//192
f 180//193 178//193 152//193
f 180//194 174//194 178//194
f 174//195 147//195 178//195
f 181//196 180//196 152//196
f 181//197 175//197 180//197
f 175//198 148//198 180//198
f 182//199 181//199 152//199
f 182//200 176//200 181//200
f 176//201 149//201 181//201
f 179//202 182//202 152//202
f 179//203 177//203 182//203
f 177//204 150//204 182//204
f 183//205 196//205 195//205
f 184//206 196//206 198//206
f 183//207 195//207 200//207
f 183//208 200//208 202//208
f 183//209 202//209 199//209
f 184//210 198//210 205//210
f 185//211 197//211 207//211
f 186//212 201//212 209//212
f 187//213 203//213 211//213
f 188//214 204//214 213//214
f 184//215 205//215 208//215
f 185//216 207//216 210//216
f 186//217 209//217 212//217
f 187//218 211//218 214//218
f 188//219 213//219 206//219
f 189//220 215//220 220//220
f 190//221 216//221 222//221
f 191//222 217//222 223//222
f 192//223 218//223 224//223
f 193//224 219//224 221//224
f 195//225 197//225 185//225
f 195//226 196//226 197//226
f 196//227 184//227 197//227
f 198//228 199//228 188//228
f 198//229 196//229 199//229
f 196//230 183//230 199//230
f 200//231 201//231 186//231
f 200//232 195//232 201//232
f 195//233 185//233 201//233
f 202//234 203//234 187//234
f 202//235 200//235 203//235
f 200//236 186//236 203//236
f 199//237 204//237 188//237
f 199//238 202//238 204//238
f 202//239 187//239 204//239
f 205//240 206//240 193//240
f 205//241 198//241 206//241
f 198//242 188//242 206//242
f 207//243 208//243 189//243
f 207//244 197//244 208//244
f 197//245 184//245 208//245
f 209//246 210//246 190//246
f 209//247 201//247 210//247
f 201//248 185//248 210//248
f 211//249 212//249 191//249
f 211//250 203//250 212//250
f 203//251 186//251 212//251
f 213//252 214//252 192//252
f 213//253 204//253 214//253
f 204//254 187//254 214//254
f 208//255 215//255 189//255
f 208//256 205//256 215//256
f 205//257 193//257 215//257
f 210//258 216//258 190//258
f 210//259 207//259 216//259
f 207//260 189//260 216//260
f 212//261 217//261 191//261
f 212//262 209//262 217//262
f 209//263 190//263 217//263
f 214//264 218//264 192//264
f 214//265 211//265 218//265
f 211//266 191//266 218//266
f 206//267 219//267 193//267
f 206//268 213//268 219//268
f 213//269 192//269 219//269
f 220//270 221//270 194//270
f 220//271 215//271 221//271
f 215//272 193//272 221//272
f 222//273 220//273 194//273
f 222//274 216//274 220//274
f 216//275 189//275 220//275
f 223//276 222//276 194//276
f 223//277 217//277 222//277
f 217//278 190//278 222//278
f 224//279 223//279 194//279
f 224//280 218//280 223//280
f 218//281 191//281 223//281
f 221//282 224//282 194//282
f 221//283 219//283 224//283
f 219//284 192//284 224//284
